<svg xmlns="http://www.w3.org/2000/svg" viewBox="0 0 295608 333333" shape-rendering="geometricPrecision" text-rendering="geometricPrecision" image-rendering="optimizeQuality"  fill-rule="evenodd" clip-rule="evenodd">
    <path d="M247826 280991l30421 33168-20989 19175-29333-32287c-11142 7411-24565 11764-38972 11764-19434 0-37002-7877-49700-20574-12749-12749-20574-30317-20574-49700 0-19434 7877-37002 20574-49700 12749-12749 30317-20574 49700-20574 19434 0 37003 7877 49700 20574 12749 12749 20574 30317 20574 49700 0 14200-4198 27415-11453 38506l52-52zm37630-257824c1618-316 3298-9 4694 843 2380 982 4058 3322 4069 6057l1381 191445c114 2349-1037 4682-3197 5975l-8285 4942c-252-2390-3415-13295-1700-14318l-1278-177178-64295 40524v68620c-4282-1356-9654-2419-14169-3176V83303l-85567-11041-2837 82696-30382-20695-30382 17172 6265-86490-45285-4024v179394l76031 8253c295 4477 885 9512 1765 13804l-86013-9563c-3493-174-6272-3061-6272-6597V51525h11c-78-2606 1404-5122 3937-6237L105728 546l5 12c1064-470 2266-663 3503-502l176219 23108 1 2zm-95502 754l-62540 34948 83012 10593 56905-35394-77375-10147h-1zM67904 52717l61878-36687-20404-2675-78730 34608 37256 4754zm161879 148991c-10434-10434-24840-16895-40778-16895-15937 0-30344 6461-40778 16895-10433 10433-16895 24840-16895 40778 0 15937 6461 30344 16895 40778 10434 10433 24841 16895 40778 16895s30344-6461 40778-16895 16895-24841 16895-40778c0-15938-6461-30344-16895-40778z" fill-rule="nonzero"/>
</svg>