<?xml version="1.0" standalone="no"?>
<!DOCTYPE svg PUBLIC "-//W3C//DTD SVG 20010904//EN"
 "http://www.w3.org/TR/2001/REC-SVG-20010904/DTD/svg10.dtd">
<svg version="1.0" xmlns="http://www.w3.org/2000/svg"
 width="330.000000pt" height="330.000000pt" viewBox="0 0 330.000000 330.000000"
 preserveAspectRatio="xMidYMid meet">
<metadata>
Created by potrace 1.11, written by Peter Selinger 2001-2013
</metadata>
<g transform="translate(0.000000,330.000000) scale(0.100000,-0.100000)"
fill="#000000" stroke="none">
<path d="M440 1941 c-125 -38 -200 -138 -200 -265 1 -119 94 -221 220 -240 54
-8 47 2 -11 15 -56 13 -125 64 -155 115 -67 115 -20 273 100 337 31 16 59 21
111 21 78 0 118 -15 173 -67 37 -36 44 -18 7 19 -58 58 -170 88 -245 65z"/>
<path d="M1213 1765 c-25 -18 -30 -57 -10 -72 6 -6 29 -13 49 -17 21 -4 40
-12 44 -18 8 -12 -22 -38 -42 -38 -14 0 -40 24 -46 42 -7 20 -26 -1 -21 -23 8
-29 64 -52 97 -39 65 24 50 92 -24 104 -32 5 -41 10 -38 24 4 22 41 27 61 8
29 -30 49 -16 25 17 -19 25 -69 31 -95 12z"/>
<path d="M1360 1760 c-37 -37 -18 -73 44 -84 41 -8 53 -21 36 -41 -18 -22 -46
-18 -68 10 -24 30 -32 31 -32 7 0 -48 80 -73 120 -37 41 37 18 78 -50 89 -32
5 -41 10 -38 24 4 23 56 29 64 8 8 -20 34 -21 34 -2 0 20 -39 46 -67 46 -13 0
-32 -9 -43 -20z"/>
<path d="M380 1685 l0 -85 60 0 c47 0 60 3 60 15 0 11 -12 15 -45 15 -38 0
-45 3 -45 19 0 14 8 21 27 23 39 4 42 28 4 28 -24 0 -31 4 -31 19 0 16 8 20
42 23 23 2 43 9 46 16 3 9 -13 12 -57 12 l-61 0 0 -85z"/>
<path d="M539 1753 c6 -10 19 -29 30 -43 l19 -24 -29 -37 c-16 -20 -29 -40
-29 -43 0 -16 26 -3 50 26 l27 32 23 -32 c13 -18 32 -32 43 -32 15 0 13 7 -17
43 l-35 43 29 35 c33 38 36 49 16 49 -8 0 -25 -14 -37 -31 l-22 -32 -26 32
c-28 34 -59 44 -42 14z"/>
<path d="M700 1755 c0 -8 5 -15 10 -15 6 0 10 -30 10 -70 0 -56 3 -70 15 -70
9 0 15 9 15 24 0 21 5 25 37 28 29 2 41 9 53 31 13 24 13 30 0 55 -14 24 -22
27 -78 30 -51 2 -62 0 -62 -13z m104 -11 c22 -9 20 -51 -3 -64 -37 -19 -51
-12 -51 23 0 46 14 56 54 41z"/>
<path d="M890 1750 c0 -11 -6 -29 -12 -40 -10 -16 -10 -24 0 -40 6 -11 12 -31
12 -45 0 -16 6 -25 15 -25 9 0 15 9 15 25 0 33 10 32 45 -5 29 -30 55 -39 55
-20 0 6 -7 13 -15 16 -27 11 -38 42 -20 60 38 39 4 94 -58 94 -30 0 -37 -4
-37 -20z m83 -24 c3 -7 1 -19 -3 -27 -7 -11 -13 -10 -29 5 -12 11 -21 25 -21
31 0 16 47 7 53 -9z m-58 -36 c3 -5 1 -10 -4 -10 -6 0 -11 5 -11 10 0 6 2 10
4 10 3 0 8 -4 11 -10z"/>
<path d="M1040 1685 l0 -85 60 0 c47 0 60 3 60 15 0 11 -12 15 -45 15 -38 0
-45 3 -45 19 0 14 8 21 27 23 39 4 42 28 4 28 -24 0 -31 4 -31 19 0 16 8 20
42 23 23 2 43 9 46 16 3 9 -13 12 -57 12 l-61 0 0 -85z"/>
<path d="M1630 1685 c0 -69 3 -85 15 -85 12 0 15 16 15 85 0 69 -3 85 -15 85
-12 0 -15 -16 -15 -85z"/>
<path d="M1690 1685 c0 -69 3 -85 15 -85 12 0 15 14 16 68 l0 67 16 -32 c17
-34 44 -50 64 -38 6 4 19 21 30 39 l19 31 0 -67 c0 -54 3 -68 15 -68 12 0 15
16 15 85 0 78 -2 85 -20 85 -12 0 -29 -15 -45 -40 -14 -22 -29 -40 -33 -40 -4
0 -17 18 -30 40 -14 25 -30 40 -42 40 -18 0 -20 -7 -20 -85z"/>
<path d="M1900 1755 c0 -8 5 -15 10 -15 6 0 10 -30 10 -70 0 -56 3 -70 15 -70
9 0 15 9 15 24 0 21 5 25 37 28 29 2 41 9 53 31 13 24 13 30 0 55 -14 24 -22
27 -78 30 -51 2 -62 0 -62 -13z m98 -11 c45 -12 18 -74 -32 -74 -11 0 -16 10
-16 33 0 47 6 52 48 41z"/>
<path d="M2090 1750 c0 -11 -6 -29 -12 -40 -10 -16 -10 -24 0 -40 6 -11 12
-31 12 -45 0 -16 6 -25 15 -25 9 0 15 9 15 25 0 33 10 32 45 -5 29 -30 55 -39
55 -20 0 6 -7 13 -15 16 -27 11 -38 42 -20 60 38 39 4 94 -58 94 -30 0 -37 -4
-37 -20z m83 -24 c3 -7 1 -19 -3 -27 -7 -11 -13 -10 -29 5 -12 11 -21 25 -21
31 0 16 47 7 53 -9z m-58 -36 c3 -5 1 -10 -4 -10 -6 0 -11 5 -11 10 0 6 2 10
4 10 3 0 8 -4 11 -10z"/>
<path d="M2240 1685 c0 -69 3 -85 15 -85 12 0 15 16 15 85 0 69 -3 85 -15 85
-12 0 -15 -16 -15 -85z"/>
<path d="M2300 1686 c0 -102 18 -116 22 -18 l3 67 17 -31 c19 -34 40 -47 63
-37 9 3 23 20 33 37 l17 31 3 -67 c2 -52 6 -68 17 -68 12 0 15 17 15 86 0 82
-1 85 -22 82 -12 -2 -33 -19 -46 -38 -13 -19 -27 -35 -32 -35 -5 0 -19 16 -32
35 -13 19 -31 36 -41 38 -15 3 -17 -7 -17 -82z"/>
<path d="M2510 1685 l0 -85 60 0 c47 0 60 3 60 15 0 11 -12 15 -45 15 -38 0
-45 3 -45 20 0 16 7 20 30 20 20 0 30 5 30 15 0 10 -10 15 -30 15 -23 0 -30 4
-30 20 0 17 7 20 45 20 33 0 45 4 45 15 0 12 -13 15 -60 15 l-60 0 0 -85z"/>
<path d="M2663 1757 c3 -7 -1 -23 -7 -36 -10 -18 -9 -32 3 -72 16 -53 31 -64
31 -24 0 33 16 32 47 -5 13 -16 33 -30 44 -30 26 0 24 10 -8 36 -28 22 -28 23
-10 52 22 38 21 48 -3 72 -24 24 -106 29 -97 7z m84 -34 c3 -8 1 -19 -6 -26
-8 -8 -16 -6 -32 10 -12 11 -19 26 -15 31 8 14 46 3 53 -15z m-52 -33 c3 -5
-1 -10 -9 -10 -9 0 -16 5 -16 10 0 6 4 10 9 10 6 0 13 -4 16 -10z"/>
<path d="M2810 1685 c0 -69 3 -85 15 -85 12 0 15 16 15 85 0 69 -3 85 -15 85
-12 0 -15 -16 -15 -85z"/>
<path d="M2870 1685 l0 -85 60 0 c47 0 60 3 60 15 0 11 -12 15 -45 15 -38 0
-45 3 -45 19 0 14 8 21 27 23 39 4 42 28 4 28 -24 0 -31 4 -31 19 0 16 8 20
42 23 23 2 43 9 46 16 3 9 -13 12 -57 12 l-61 0 0 -85z"/>
<path d="M690 1515 c-18 -21 -129 -75 -157 -75 -12 0 -23 -4 -23 -10 0 -18 53
-11 105 14 48 22 120 86 98 86 -6 0 -16 -7 -23 -15z"/>
</g>
</svg>
