<svg xmlns="http://www.w3.org/2000/svg" viewBox="0 0 333334 247552" shape-rendering="geometricPrecision" text-rendering="geometricPrecision" image-rendering="optimizeQuality" fill-rule="evenodd" clip-rule="evenodd"><path d="M22565 0h288203c12411 0 22565 10155 22565 22565v202422c0 12410-10156 22565-22565 22565H22565C10155 247552 0 237398 0 224987V22565C0 10154 10154 0 22565 0zm125165 195911l-60917-36932v-23403l60917-36906v27841l-37026 20860 37026 20888v27652zm37873 0l60917-36932v-23403l-60917-36906v27841l37026 20860-37026 20888v27652zM320012 63180H14340v164006c0 1730 673 3267 1826 4421 1153 1153 2691 1826 4420 1826h293084c1730 0 3267-672 4420-1826 1154-1154 1826-2691 1826-4421V63180h96zm-30720-37815c6155 0 11145 4990 11145 11145s-4990 11145-11145 11145-11145-4990-11145-11145 4990-11145 11145-11145zm-75539 0c6155 0 11145 4990 11145 11145s-4990 11145-11145 11145-11145-4990-11145-11145 4990-11145 11145-11145zm37770 0c6155 0 11145 4990 11145 11145s-4990 11145-11145 11145-11145-4990-11145-11145 4990-11145 11145-11145z"/></svg>