<svg xmlns="http://www.w3.org/2000/svg" viewBox="0 0 333333 276717" shape-rendering="geometricPrecision" text-rendering="geometricPrecision" image-rendering="optimizeQuality" fill-rule="evenodd" clip-rule="evenodd"><path d="M247993 0v23145h28724v25121h-28724v40045l-25121 10132V48266H53844v179293h169028v-30574l25121-8232v38805h28724v25120h-28724v24038h-25121v-24038H53844v24038H28724v-24038H0v-25120h28724V48265H0V23144h28724V-1h25120v23145h169028V-1h25121zm-15487 125598c9157 10805 15621 22443 19087 35007l73582-53723c6254-3960 10082-7593 7160-16120-1761-2685-3847-4350-6256-4992s-5145-266-8204 1133l-85370 38695zm-110580 81866c22237-10124 50526 11014 67606-10876 4529-5805 6972-14489 5411-22067-629-3051-1887-5909-3878-8291-881-1055-1903-2033-3071-2931-14461-11115-33372-3265-44883 8438-10588 10765-17182 25517-21185 35728zm74613-51742c4206 3455 9441 10939 9623 18033l39172-10030c-3837-13801-9754-26140-19283-35942-14535 13181-13544 15866-29512 27939zm-42335-30776l-31688 34565v-52523H92632V80649h91456v26339h-29884v17957z" fill-rule="nonzero"/></svg>